<svg width="39" height="48" viewBox="0 0 39 48" fill="none" xmlns="http://www.w3.org/2000/svg">
<path d="M38.8966 20.9864C38.6342 14.8095 36.6265 9.52831 33.0884 5.71995C29.6619 2.032 24.9592 0 19.8563 0C14.7535 0 9.99177 2.02705 6.49471 5.71006C2.83691 9.56789 0.770164 14.8936 0.520843 21.1101L0.476562 46.9669C0.476562 47.2358 0.574972 47.4865 0.757042 47.6844C0.948954 47.8856 1.22124 48.0077 1.49845 48.0077H13.6906C13.0033 47.4865 12.3833 46.8861 11.8436 46.2132C10.4297 44.45 9.58171 42.2119 9.58171 39.7758C9.58171 34.1185 14.1597 29.5119 19.7891 29.5119C25.4185 29.5119 30.0014 34.1185 30.0014 39.7758C30.0014 42.2119 29.1534 44.45 27.7395 46.2132C27.1998 46.8861 26.5798 47.4865 25.8925 48.0077H37.8846C38.4505 48.0077 38.9114 47.5409 38.9114 46.9669V21.1463C38.9114 21.0919 38.9065 21.0391 38.8983 20.9847L38.8966 20.9864ZM37.1268 31.3113C34.8747 34.3906 32.6341 37.4848 30.4148 40.5922C30.4197 40.5163 30.4246 40.4405 30.4295 40.3629C32.6357 36.9818 34.8747 33.6204 37.1268 30.2788V31.3097V31.3113ZM37.1268 29.1243C34.8763 32.4559 32.639 35.8091 30.4295 39.1787C30.423 39.06 30.4131 38.9412 30.4033 38.8241C32.6127 35.1131 34.8615 31.4251 37.1268 27.7652V29.1243ZM2.2907 26.9422C4.63957 30.6087 6.97695 34.2669 9.30122 37.9071C9.28481 38.0044 9.26677 38.1017 9.25201 38.2006C6.94251 34.9003 4.62152 31.59 2.28906 28.2732V26.9422H2.2907ZM2.28742 29.3964C4.58544 32.6671 6.87361 35.9328 9.15195 39.1853C9.14866 39.2579 9.14703 39.3304 9.14375 39.403C6.88345 36.4391 4.59691 33.4456 2.28413 30.4256V29.3948L2.28742 29.3964ZM2.28413 31.4894C4.60184 34.5176 6.89657 37.5228 9.16179 40.4949C9.16507 40.5328 9.16671 40.5724 9.16835 40.6103C6.88674 37.8526 4.58872 35.0801 2.2825 32.2993V31.4911L2.28413 31.4894ZM6.29624 39.5746C4.96762 38.194 3.62752 36.8003 2.27758 35.3967V34.9102C4.02282 36.8597 5.76315 38.806 7.49363 40.7423C7.09505 40.3514 6.69646 39.9622 6.29624 39.5729V39.5746ZM2.27922 33.9387V33.3103C4.64285 36.1604 6.995 39.0006 9.33238 41.8243C6.99664 39.2084 4.64285 36.5777 2.27922 33.9354V33.9387ZM9.49641 37.0082C7.10981 33.2674 4.70682 29.5102 2.29234 25.7431L2.29562 24.0047C4.45093 27.724 6.58985 31.4301 8.71892 35.1147C9.01253 35.6211 9.30614 36.1324 9.60139 36.6437C9.5653 36.7641 9.53086 36.8861 9.49805 37.0082H9.49641ZM9.88187 35.8388C9.67847 35.4875 9.47673 35.1361 9.27333 34.7865C6.96383 30.7852 4.63792 26.7574 2.29562 22.7198L2.2989 21.1645C2.3071 20.9402 2.32022 20.7175 2.33498 20.4965C4.13272 23.9585 5.91569 27.4139 7.68883 30.8478C8.47288 32.3652 9.26184 33.8925 10.0541 35.4297C9.9934 35.565 9.936 35.7035 9.88187 35.8421V35.8388ZM10.4084 34.6991C9.68832 33.3054 8.97152 31.9199 8.26128 30.5443C6.33232 26.8102 4.39352 23.0546 2.43668 19.2875C2.52033 18.4991 2.63679 17.7305 2.78606 16.9801C4.36728 20.4289 5.9321 23.8678 7.48708 27.2852C8.53521 29.5877 9.59318 31.9133 10.661 34.2521C10.5724 34.3989 10.4888 34.5473 10.4068 34.6974L10.4084 34.6991ZM11.0825 33.6121C10.0721 31.3987 9.06993 29.1968 8.07593 27.0164C6.40449 23.3416 4.71994 19.6454 3.02062 15.9377C3.21582 15.1427 3.44873 14.3725 3.71774 13.6269C5.13821 17.2027 6.54392 20.7686 7.93651 24.3114C9.08634 27.2325 10.2493 30.1848 11.4237 33.1536C11.3056 33.3037 11.1924 33.4571 11.0825 33.6121ZM11.8961 32.5863C10.7643 29.7263 9.64239 26.8828 8.53521 24.069C7.05733 20.3151 5.56796 16.5331 4.05891 12.7412C4.37712 11.9726 4.73634 11.2354 5.13657 10.5295C6.40778 14.3081 7.65602 18.0752 8.89771 21.8143C10.0262 25.2202 11.1695 28.669 12.3324 32.1327C12.1832 32.2795 12.0372 32.4312 11.8961 32.5863ZM12.854 31.6511C11.7222 28.2798 10.6085 24.9217 9.50953 21.6049C8.21208 17.6943 6.90314 13.7523 5.57124 9.7988C6.00919 9.09947 6.48979 8.43644 7.01139 7.81133C8.12842 11.8489 9.21592 15.8717 10.2952 19.8631C11.3089 23.6138 12.3357 27.4073 13.3855 31.2206C13.2034 31.3591 13.0279 31.5043 12.8557 31.6527L12.854 31.6511ZM13.9465 30.8231C12.9164 27.0873 11.9125 23.3697 10.9185 19.6933C9.80313 15.5633 8.67627 11.402 7.51988 7.22581C7.60518 7.1318 7.69047 7.03943 7.77741 6.94707C8.25309 6.44567 8.755 5.9789 9.27989 5.54677C10.205 9.81364 11.1006 14.064 11.9863 18.2798C12.8294 22.2943 13.684 26.3599 14.5681 30.4404C14.3565 30.5608 14.1482 30.6878 13.9465 30.8214V30.8231ZM15.1603 30.1271C14.2926 26.1059 13.4495 22.1013 12.6195 18.1445C11.714 13.8265 10.7971 9.47223 9.84579 5.10145C10.5003 4.60829 11.1859 4.16791 11.8994 3.78031C12.585 8.1445 13.2379 12.4922 13.8841 16.8019C14.5255 21.0969 15.1783 25.4479 15.8656 29.817C15.6261 29.9126 15.3899 30.0149 15.1603 30.1271ZM16.484 29.5927C15.8032 25.2681 15.1586 20.9583 14.5238 16.7079C13.8677 12.3273 13.2051 7.90699 12.503 3.47024C13.2395 3.10903 14.0022 2.80555 14.7879 2.55815C15.2078 6.88604 15.5933 11.1975 15.9738 15.4676C16.3806 20.0545 16.7956 24.704 17.2532 29.3717C16.9924 29.436 16.7366 29.5102 16.484 29.5927ZM17.888 29.2364C17.432 24.5935 17.022 19.972 16.6152 15.4099C16.233 11.0968 15.8426 6.74585 15.4161 2.37507C16.2084 2.16065 17.0187 2.00231 17.847 1.90665C17.9963 6.06137 18.1144 10.1979 18.2292 14.2966C18.3686 19.1836 18.5097 24.1383 18.7032 29.1177C18.4277 29.1457 18.157 29.1869 17.888 29.2364ZM20.1795 29.0731C20.0499 29.0682 19.9203 29.0632 19.7891 29.0632C19.6415 29.0632 19.4955 29.0682 19.3495 29.0748C19.156 24.1036 19.0133 19.1572 18.8755 14.2784C18.759 10.165 18.6409 6.01354 18.4916 1.84233C18.9427 1.80604 19.3971 1.7879 19.8563 1.7879C20.2336 1.7879 20.6092 1.80109 20.9816 1.82583C20.8815 5.66058 20.7569 9.47553 20.6322 13.2575C20.46 18.4694 20.2877 23.7573 20.1795 29.0731ZM20.8274 29.1144C20.934 23.7919 21.1062 18.5008 21.2768 13.2806C21.4015 9.50851 21.5229 5.70511 21.6246 1.88026C22.4595 1.96768 23.2796 2.11612 24.0768 2.32394C23.7799 5.69356 23.465 9.0467 23.1517 12.3718C22.6268 17.9235 22.097 23.561 21.6492 29.2298C21.3785 29.182 21.103 29.1408 20.8258 29.1144H20.8274ZM22.2889 29.3634C22.7367 23.6682 23.2681 18.0093 23.7946 12.4345C24.1047 9.14731 24.4147 5.83211 24.7099 2.50372C25.5087 2.74782 26.2829 3.0513 27.0293 3.41416C26.6126 6.16528 26.1894 8.90485 25.7646 11.6246C24.8444 17.5359 23.9111 23.5396 23.0795 29.5894C22.8203 29.5036 22.5562 29.4294 22.2872 29.3651L22.2889 29.3634ZM23.7028 29.8137C24.5377 23.7243 25.4792 17.6778 26.4043 11.7252C26.816 9.07143 27.2294 6.40278 27.6362 3.72259C28.3661 4.11678 29.0665 4.56871 29.7324 5.07671C29.3043 7.06747 28.8762 9.05164 28.4465 11.0226C27.0818 17.3067 25.6957 23.6929 24.4393 30.1353C24.1981 30.0182 23.9521 29.911 23.7028 29.8104V29.8137ZM25.033 30.4553C26.301 23.9535 27.7001 17.5046 29.0796 11.1645C29.4847 9.29575 29.8915 7.41714 30.2983 5.53028C30.8183 5.96571 31.3153 6.43742 31.786 6.94212C31.8877 7.05263 31.9894 7.16314 32.0895 7.27694C31.786 8.37211 31.4809 9.46563 31.1775 10.5559C29.3207 17.2242 27.4295 24.008 25.6924 30.8627C25.4792 30.7192 25.2594 30.5856 25.0347 30.4569L25.033 30.4553ZM26.8193 31.7335C26.6372 31.5719 26.4486 31.4169 26.2567 31.2684C28.0069 24.3362 29.9178 17.4749 31.8008 10.7323C32.0649 9.78396 32.329 8.83063 32.5947 7.87731C33.1147 8.5222 33.592 9.20833 34.025 9.9324C33.9955 10.0215 33.9643 10.1122 33.9332 10.2012C31.5269 17.2621 29.0812 24.4549 26.8209 31.7352L26.8193 31.7335ZM27.3426 32.2267C29.5979 24.9464 32.0436 17.7487 34.4498 10.6796C34.8435 11.4086 35.1945 12.1739 35.5045 12.9705C32.9031 19.4706 30.2868 26.073 27.8297 32.7561C27.6739 32.5747 27.5115 32.3982 27.3442 32.2283L27.3426 32.2267ZM28.3021 33.34C30.7117 26.7706 33.277 20.2788 35.8342 13.8842C36.0967 14.6627 36.3214 15.4693 36.5067 16.3038C33.861 22.0947 31.2185 27.9648 28.6941 33.9041C28.5695 33.7128 28.4383 33.5247 28.3021 33.3416V33.34ZM29.1075 34.5869C31.563 28.7861 34.1365 23.048 36.7216 17.3842C36.861 18.1759 36.966 18.989 37.0366 19.8219C34.4515 24.8706 31.8795 29.9786 29.3945 35.1378C29.3043 34.9514 29.2075 34.7683 29.1075 34.5869ZM29.9145 36.4441C29.8571 36.2693 29.7964 36.0977 29.7308 35.9262C32.1305 30.9303 34.6139 25.9789 37.1169 21.0853C37.1169 21.1002 37.1169 21.115 37.1186 21.1298L37.1235 21.2783V23.4356C34.6893 27.7322 32.2732 32.07 29.9145 36.4441ZM37.1235 24.7452V26.5348C34.8107 30.2607 32.516 34.0129 30.2589 37.7933C30.2311 37.6415 30.1983 37.4914 30.1638 37.343C32.4372 33.1091 34.7697 28.9082 37.1235 24.7452ZM30.2196 41.9711C32.5012 38.7697 34.8074 35.5798 37.1251 32.4065V33.1751C34.8091 36.1126 32.4996 39.06 30.2081 42.0172C30.2114 42.0007 30.2147 41.9859 30.2179 41.9711H30.2196ZM37.1268 34.2208V34.7815C35.0961 37.1797 33.0704 39.5828 31.0512 41.9909C33.0671 39.3915 35.0928 36.8036 37.1268 34.2208ZM32.1994 41.6296C32.1994 41.6296 32.2125 41.6132 32.2191 41.6049C33.8511 39.662 35.4881 37.7207 37.1268 35.7827V36.1719C35.4898 37.9813 33.8528 39.7923 32.2207 41.6049C32.2142 41.6132 32.206 41.6197 32.1994 41.628V41.6296ZM37.1268 37.1401V37.3875C35.9294 38.6311 34.732 39.8731 33.5329 41.1167C34.7287 39.7906 35.9277 38.4662 37.1268 37.1418V37.1401Z" fill="#451212"/>
</svg>
