<svg width="180" height="77" viewBox="0 0 180 77" fill="none" xmlns="http://www.w3.org/2000/svg">
<g clip-path="url(#clip0_41_126)">
<path d="M38.1248 24.1448V48.0093H30.1728V36.9389H7.90775V48.0093H0.0787354V24.1448C0.0787354 11.2288 7.72403 4.34106 19.101 4.34106C30.4779 4.34106 38.1232 11.2304 38.1232 24.1465L38.1248 24.1448ZM30.1728 30.2342V23.4076C30.1728 15.2268 25.8293 11.3525 19.0403 11.3525C12.2512 11.3525 7.90775 15.2268 7.90775 23.4076V30.2342H30.1728Z" fill="#010101"/>
<path d="M86.2601 4.9563V48.0093H78.6148V42.5351C75.618 46.7179 70.9072 48.6245 65.158 48.6245C55.1261 48.6245 48.8882 42.1657 48.8882 30.358V4.9563H56.8402V30.0512C56.8402 37.8625 60.8769 41.6148 67.0558 41.6148C73.6005 41.6148 78.3097 37.7405 78.3097 29.2529V4.9563H86.2618H86.2601Z" fill="#010101"/>
<path d="M125.773 48.0093L117.025 35.4C116.474 35.4611 115.924 35.4611 115.373 35.4611H105.709V48.0077H97.7568V4.9563H115.373C126.627 4.9563 133.602 10.7373 133.602 20.2705C133.602 26.7904 130.298 31.5867 124.488 33.8628L134.337 48.0093H125.773ZM115.008 11.7219H105.711V28.8818H115.008C121.98 28.8818 125.589 25.6837 125.589 20.2705C125.589 14.8574 121.98 11.7219 115.008 11.7219Z" fill="#010101"/>
<path d="M0.419909 76.6009H2.80814V76.9654H0V72.9739H2.72121V73.3384H0.419909V76.6009ZM0.373982 74.7585H2.47189V75.1181H0.373982V74.7585Z" fill="#010101"/>
<path d="M5.45556 77C5.16031 77 4.87818 76.9521 4.60754 76.8548C4.3369 76.7575 4.12858 76.6338 3.98096 76.4821L4.14498 76.1572C4.28441 76.2941 4.47304 76.4095 4.70924 76.5019C4.94544 76.5942 5.19476 76.6421 5.45556 76.6421C5.71636 76.6421 5.90827 76.6107 6.06574 76.548C6.22321 76.4854 6.33803 76.4013 6.41184 76.2941C6.48565 76.1868 6.52174 76.0697 6.52174 75.9411C6.52174 75.7861 6.47745 75.6607 6.38887 75.565C6.3003 75.4694 6.18384 75.3952 6.0395 75.3391C5.89515 75.2846 5.73769 75.2352 5.56382 75.1939C5.38995 75.1527 5.21608 75.1082 5.04221 75.0603C4.86834 75.0125 4.70924 74.9498 4.56325 74.869C4.41727 74.7898 4.30081 74.6843 4.21224 74.5523C4.12366 74.422 4.07937 74.2489 4.07937 74.0361C4.07937 73.8382 4.13186 73.6567 4.2352 73.4918C4.33854 73.3269 4.49928 73.1933 4.71416 73.0927C4.92903 72.9921 5.20624 72.9409 5.54249 72.9409C5.76557 72.9409 5.98701 72.9723 6.20516 73.0349C6.42496 73.0976 6.61359 73.1834 6.7727 73.2939L6.63163 73.6304C6.46105 73.5165 6.28062 73.4324 6.09034 73.3796C5.90007 73.3269 5.71472 73.3005 5.53757 73.3005C5.29973 73.3005 5.1029 73.3335 4.94708 73.3978C4.79125 73.4621 4.67807 73.5495 4.60426 73.6567C4.53045 73.7656 4.49436 73.8876 4.49436 74.0245C4.49436 74.1812 4.53865 74.3066 4.62722 74.4006C4.7158 74.4963 4.8339 74.5705 4.97824 74.6233C5.12423 74.676 5.28333 74.7239 5.4572 74.7651C5.63107 74.8063 5.8033 74.8525 5.97553 74.902C6.14775 74.9515 6.30686 75.0158 6.4512 75.0933C6.59719 75.1708 6.71365 75.2748 6.80222 75.4034C6.8908 75.5321 6.93508 75.7019 6.93508 75.9114C6.93508 76.106 6.8826 76.2842 6.77598 76.4507C6.66936 76.6157 6.50861 76.7493 6.29046 76.8499C6.0723 76.9505 5.79346 77.0016 5.45392 77.0016L5.45556 77Z" fill="#010101"/>
<path d="M9.12983 76.9654V73.3384H7.7356V72.9739H10.9456V73.3384H9.55138V76.9654H9.13147H9.12983Z" fill="#010101"/>
<path d="M11.231 76.995C11.1474 76.995 11.0768 76.9653 11.0178 76.9043C10.9587 76.8433 10.9292 76.7691 10.9292 76.6817C10.9292 76.5942 10.9587 76.5167 11.0178 76.459C11.0768 76.4013 11.1474 76.3732 11.231 76.3732C11.3147 76.3732 11.3852 76.4013 11.4442 76.459C11.5033 76.5167 11.5328 76.5909 11.5328 76.6817C11.5328 76.7724 11.5033 76.8433 11.4442 76.9043C11.3852 76.9653 11.3147 76.995 11.231 76.995Z" fill="#010101"/>
<path d="M168.115 76.9655V76.6752L169.765 75.0506C169.916 74.9021 170.029 74.7718 170.104 74.6597C170.18 74.5475 170.23 74.442 170.257 74.343C170.283 74.244 170.296 74.1517 170.296 74.0642C170.296 73.8317 170.217 73.6503 170.06 73.5167C169.902 73.3831 169.671 73.3171 169.366 73.3171C169.132 73.3171 168.925 73.3534 168.744 73.4259C168.566 73.4985 168.411 73.6107 168.282 73.7624L167.993 73.5117C168.147 73.3286 168.346 73.1884 168.589 73.0895C168.83 72.9905 169.1 72.941 169.399 72.941C169.668 72.941 169.899 72.9839 170.096 73.0697C170.293 73.1555 170.445 73.2792 170.552 73.4441C170.66 73.6074 170.714 73.8004 170.714 74.0197C170.714 74.1484 170.696 74.277 170.66 74.4024C170.624 74.5277 170.56 74.6597 170.467 74.7982C170.375 74.9368 170.239 75.0934 170.062 75.2683L168.548 76.7626L168.434 76.6026H170.895V76.9671H168.11L168.115 76.9655Z" fill="#010101"/>
<path d="M173.547 77C173.24 77 172.968 76.9192 172.73 76.7575C172.492 76.5959 172.305 76.3633 172.169 76.0615C172.033 75.7597 171.966 75.3952 171.966 74.9696C171.966 74.5441 172.033 74.1796 172.169 73.8778C172.305 73.5759 172.492 73.3434 172.73 73.1817C172.968 73.0201 173.24 72.9393 173.547 72.9393C173.854 72.9393 174.126 73.0201 174.364 73.1817C174.602 73.3434 174.79 73.5759 174.928 73.8778C175.066 74.1796 175.135 74.5441 175.135 74.9696C175.135 75.3952 175.066 75.7597 174.928 76.0615C174.79 76.3633 174.602 76.5959 174.364 76.7575C174.126 76.9192 173.854 77 173.547 77ZM173.547 76.6239C173.782 76.6239 173.985 76.5596 174.159 76.4326C174.333 76.3056 174.469 76.1192 174.567 75.8735C174.666 75.6277 174.715 75.3275 174.715 74.9696C174.715 74.6117 174.666 74.3115 174.567 74.0658C174.469 73.82 174.333 73.6336 174.159 73.5066C173.985 73.3796 173.782 73.3153 173.547 73.3153C173.312 73.3153 173.117 73.3796 172.94 73.5066C172.763 73.6336 172.625 73.82 172.527 74.0658C172.428 74.3115 172.379 74.6117 172.379 74.9696C172.379 75.3275 172.428 75.6277 172.527 75.8735C172.625 76.1192 172.763 76.3056 172.94 76.4326C173.117 76.5596 173.321 76.6239 173.547 76.6239Z" fill="#010101"/>
<path d="M176.979 76.9654V73.1455L177.161 73.3401H176.044V72.9756H177.387V76.967H176.979V76.9654Z" fill="#010101"/>
<path d="M179.591 76.9654V73.1455L179.774 73.3401H178.656V72.9756H180V76.967H179.591V76.9654Z" fill="#010101"/>
<path d="M0.0787354 69.4179H2.32099V55.4611H11.5131V69.4179H13.7323V53.4802H0.0787354V69.4179Z" fill="#010101"/>
<path d="M25.9146 53.4802L18.7368 69.4179H21.0693L22.8112 65.4331H31.239L32.9809 69.4179H35.3577L28.1569 53.4802H25.9146ZM23.6068 63.6122L27.0251 55.791L30.4434 63.6122H23.6084H23.6068Z" fill="#010101"/>
<path d="M55.351 53.4802L48.826 64.6744L42.2174 53.4802H40.3606V69.4179H42.534V57.8675L48.2634 67.4832H49.305L55.0345 57.7949L55.0558 69.4179H57.2308L57.2078 53.4802H55.351Z" fill="#010101"/>
<path d="M64.5661 52.3867C64.1429 52.3867 63.7853 52.5269 63.4901 52.8073C63.1965 53.0877 63.0488 53.4637 63.0488 53.9338C63.0488 54.4039 63.1965 54.7535 63.4901 55.0273C63.6393 55.1659 63.8083 55.2698 63.9953 55.3374L63.162 58.7384H64.589L65.6765 55.5502C65.7815 55.2615 65.8619 55.0257 65.9144 54.8443C65.9669 54.6628 66.0013 54.4995 66.0161 54.3544C66.0308 54.2109 66.039 54.0691 66.039 53.9338C66.039 53.4934 65.9029 53.1256 65.6306 52.8287C65.3583 52.5335 65.004 52.3851 64.5661 52.3851V52.3867Z" fill="#010101"/>
<path d="M73.8729 54.1515C72.9068 54.5985 72.1588 55.2516 71.6306 56.1093C71.1025 56.967 70.8384 58.0028 70.8384 59.2167C70.8384 60.4306 71.0828 61.3839 71.5749 62.2102C72.0653 63.0382 72.7755 63.6716 73.7039 64.1119C73.9073 64.2093 74.1222 64.2934 74.342 64.3676L70.84 69.4163H73.2397L76.4005 64.7519C76.6023 64.7634 76.809 64.7717 77.0206 64.7717H81.3902V69.4163H83.6095V53.4786H77.2469C75.9642 53.4786 74.839 53.7029 73.8729 54.1499V54.1515ZM81.3902 55.4611V62.8601H77.201C75.8576 62.8601 74.8423 62.5418 74.155 61.9035C73.4677 61.2652 73.1249 60.363 73.1249 59.1936C73.1249 57.9632 73.4874 57.0346 74.2124 56.4045C74.9374 55.7745 75.979 55.4595 77.3371 55.4595H81.3902V55.4611Z" fill="#010101"/>
<path d="M88.6353 55.4611H94.0465V69.4179H96.2658V55.4611H101.7V53.4802H88.6353V55.4611Z" fill="#010101"/>
<path d="M118.095 60.3333H108.991V53.4802H106.728V69.4179H108.991V62.3142H118.095V69.4179H120.358V53.4802H118.095V60.3333Z" fill="#010101"/>
<path d="M129.799 65.7745V53.4802H127.559V69.4179H129.642L139.039 57.1451V69.4179H141.258V53.4802H139.175L129.799 65.7745Z" fill="#010101"/>
<path d="M161.432 53.4802H159.009L154.031 60.4009H150.677V53.4802H148.458V69.4179H150.677V62.4049H153.989L159.123 69.4179H161.704L155.771 61.2058L161.432 53.4802Z" fill="#010101"/>
<path d="M177.917 53.4802L168.543 65.7745V53.4802H166.301V69.4179H168.384L177.781 57.1451V69.4179H180V53.4802H177.917Z" fill="#010101"/>
<path d="M179.897 20.9864C179.634 14.8095 177.626 9.52831 174.088 5.71995C170.662 2.032 165.959 0 160.856 0C155.753 0 150.992 2.02705 147.495 5.71006C143.837 9.56789 141.77 14.8936 141.521 21.1101L141.477 46.9669C141.477 47.2358 141.575 47.4865 141.757 47.6844C141.949 47.8856 142.221 48.0077 142.498 48.0077H154.691C154.003 47.4865 153.383 46.8861 152.844 46.2132C151.43 44.45 150.582 42.2119 150.582 39.7758C150.582 34.1185 155.16 29.5119 160.789 29.5119C166.419 29.5119 171.001 34.1185 171.001 39.7758C171.001 42.2119 170.153 44.45 168.739 46.2132C168.2 46.8861 167.58 47.4865 166.893 48.0077H178.885C179.45 48.0077 179.911 47.5409 179.911 46.9669V21.1463C179.911 21.0919 179.906 21.0391 179.898 20.9847L179.897 20.9864ZM178.127 31.3113C175.875 34.3906 173.634 37.4848 171.415 40.5922C171.42 40.5163 171.425 40.4405 171.43 40.3629C173.636 36.9818 175.875 33.6204 178.127 30.2788V31.3097V31.3113ZM178.127 29.1243C175.876 32.4559 173.639 35.8091 171.43 39.1787C171.423 39.06 171.413 38.9412 171.403 38.8241C173.613 35.1131 175.862 31.4251 178.127 27.7652V29.1243ZM143.291 26.9422C145.64 30.6087 147.977 34.2669 150.301 37.9071C150.285 38.0044 150.267 38.1017 150.252 38.2006C147.943 34.9003 145.622 31.59 143.289 28.2732V26.9422H143.291ZM143.287 29.3964C145.585 32.6671 147.874 35.9328 150.152 39.1853C150.149 39.2579 150.147 39.3304 150.144 39.403C147.883 36.4391 145.597 33.4456 143.284 30.4256V29.3948L143.287 29.3964ZM143.284 31.4894C145.602 34.5176 147.897 37.5228 150.162 40.4949C150.165 40.5328 150.167 40.5724 150.168 40.6103C147.887 37.8526 145.589 35.0801 143.283 32.2993V31.4911L143.284 31.4894ZM147.296 39.5746C145.968 38.194 144.628 36.8003 143.278 35.3967V34.9102C145.023 36.8597 146.763 38.806 148.494 40.7423C148.095 40.3514 147.696 39.9622 147.296 39.5729V39.5746ZM143.279 33.9387V33.3103C145.643 36.1604 147.995 39.0006 150.332 41.8243C147.997 39.2084 145.643 36.5777 143.279 33.9354V33.9387ZM150.496 37.0082C148.11 33.2674 145.707 29.5102 143.292 25.7431L143.296 24.0047C145.451 27.724 147.59 31.4301 149.719 35.1147C150.013 35.6211 150.306 36.1324 150.601 36.6437C150.565 36.7641 150.531 36.8861 150.498 37.0082H150.496ZM150.882 35.8388C150.678 35.4875 150.477 35.1361 150.273 34.7865C147.964 30.7852 145.638 26.7574 143.296 22.7198L143.299 21.1645C143.307 20.9402 143.32 20.7175 143.335 20.4965C145.133 23.9585 146.916 27.4139 148.689 30.8478C149.473 32.3652 150.262 33.8925 151.054 35.4297C150.993 35.565 150.936 35.7035 150.882 35.8421V35.8388ZM151.408 34.6991C150.688 33.3054 149.972 31.9199 149.261 30.5443C147.332 26.8102 145.394 23.0546 143.437 19.2875C143.52 18.4991 143.637 17.7305 143.786 16.9801C145.367 20.4289 146.932 23.8678 148.487 27.2852C149.535 29.5877 150.593 31.9133 151.661 34.2521C151.572 34.3989 151.489 34.5473 151.407 34.6974L151.408 34.6991ZM152.083 33.6121C151.072 31.3987 150.07 29.1968 149.076 27.0164C147.404 23.3416 145.72 19.6454 144.021 15.9377C144.216 15.1427 144.449 14.3725 144.718 13.6269C146.138 17.2027 147.544 20.7686 148.937 24.3114C150.086 27.2325 151.249 30.1848 152.424 33.1536C152.306 33.3037 152.192 33.4571 152.083 33.6121ZM152.896 32.5863C151.764 29.7263 150.642 26.8828 149.535 24.069C148.057 20.3151 146.568 16.5331 145.059 12.7412C145.377 11.9726 145.736 11.2354 146.137 10.5295C147.408 14.3081 148.656 18.0752 149.898 21.8143C151.026 25.2202 152.169 28.669 153.332 32.1327C153.183 32.2795 153.037 32.4312 152.896 32.5863ZM153.854 31.6511C152.722 28.2798 151.609 24.9217 150.51 21.6049C149.212 17.6943 147.903 13.7523 146.571 9.7988C147.009 9.09947 147.49 8.43644 148.011 7.81133C149.128 11.8489 150.216 15.8717 151.295 19.8631C152.309 23.6138 153.336 27.4073 154.385 31.2206C154.203 31.3591 154.028 31.5043 153.856 31.6527L153.854 31.6511ZM154.946 30.8231C153.916 27.0873 152.913 23.3697 151.919 19.6933C150.803 15.5633 149.676 11.402 148.52 7.22581C148.605 7.1318 148.69 7.03943 148.777 6.94707C149.253 6.44567 149.755 5.9789 150.28 5.54677C151.205 9.81364 152.101 14.064 152.986 18.2798C153.829 22.2943 154.684 26.3599 155.568 30.4404C155.357 30.5608 155.148 30.6878 154.946 30.8214V30.8231ZM156.16 30.1271C155.293 26.1059 154.449 22.1013 153.619 18.1445C152.714 13.8265 151.797 9.47223 150.846 5.10145C151.5 4.60829 152.186 4.16791 152.899 3.78031C153.585 8.1445 154.238 12.4922 154.884 16.8019C155.525 21.0969 156.178 25.4479 156.866 29.817C156.626 29.9126 156.39 30.0149 156.16 30.1271ZM157.484 29.5927C156.803 25.2681 156.159 20.9583 155.524 16.7079C154.868 12.3273 154.205 7.90699 153.503 3.47024C154.24 3.10903 155.002 2.80555 155.788 2.55815C156.208 6.88604 156.593 11.1975 156.974 15.4676C157.381 20.0545 157.796 24.704 158.253 29.3717C157.992 29.436 157.737 29.5102 157.484 29.5927ZM158.888 29.2364C158.432 24.5935 158.022 19.972 157.615 15.4099C157.233 11.0968 156.843 6.74585 156.416 2.37507C157.208 2.16065 158.019 2.00231 158.847 1.90665C158.996 6.06137 159.114 10.1979 159.229 14.2966C159.369 19.1836 159.51 24.1383 159.703 29.1177C159.428 29.1457 159.157 29.1869 158.888 29.2364ZM161.179 29.0731C161.05 29.0682 160.92 29.0632 160.789 29.0632C160.641 29.0632 160.495 29.0682 160.35 29.0748C160.156 24.1036 160.013 19.1572 159.875 14.2784C159.759 10.165 159.641 6.01354 159.492 1.84233C159.943 1.80604 160.397 1.7879 160.856 1.7879C161.234 1.7879 161.609 1.80109 161.982 1.82583C161.882 5.66058 161.757 9.47553 161.632 13.2575C161.46 18.4694 161.288 23.7573 161.179 29.0731ZM161.827 29.1144C161.934 23.7919 162.106 18.5008 162.277 13.2806C162.401 9.50851 162.523 5.70511 162.625 1.88026C163.459 1.96768 164.28 2.11612 165.077 2.32394C164.78 5.69356 164.465 9.0467 164.152 12.3718C163.627 17.9235 163.097 23.561 162.649 29.2298C162.379 29.182 162.103 29.1408 161.826 29.1144H161.827ZM163.289 29.3634C163.737 23.6682 164.268 18.0093 164.795 12.4345C165.105 9.14731 165.415 5.83211 165.71 2.50372C166.509 2.74782 167.283 3.0513 168.029 3.41416C167.613 6.16528 167.189 8.90485 166.765 11.6246C165.844 17.5359 164.911 23.5396 164.079 29.5894C163.82 29.5036 163.556 29.4294 163.287 29.3651L163.289 29.3634ZM164.703 29.8137C165.538 23.7243 166.479 17.6778 167.404 11.7252C167.816 9.07143 168.229 6.40278 168.636 3.72259C169.366 4.11678 170.066 4.56871 170.732 5.07671C170.304 7.06747 169.876 9.05164 169.446 11.0226C168.082 17.3067 166.696 23.6929 165.439 30.1353C165.198 30.0182 164.952 29.911 164.703 29.8104V29.8137ZM166.033 30.4553C167.301 23.9535 168.7 17.5046 170.08 11.1645C170.485 9.29575 170.892 7.41714 171.298 5.53028C171.818 5.96571 172.315 6.43742 172.786 6.94212C172.888 7.05263 172.989 7.16314 173.089 7.27694C172.786 8.37211 172.481 9.46563 172.177 10.5559C170.321 17.2242 168.429 24.008 166.692 30.8627C166.479 30.7192 166.259 30.5856 166.035 30.4569L166.033 30.4553ZM167.819 31.7335C167.637 31.5719 167.449 31.4169 167.257 31.2684C169.007 24.3362 170.918 17.4749 172.801 10.7323C173.065 9.78396 173.329 8.83063 173.595 7.87731C174.115 8.5222 174.592 9.20833 175.025 9.9324C174.995 10.0215 174.964 10.1122 174.933 10.2012C172.527 17.2621 170.081 24.4549 167.821 31.7352L167.819 31.7335ZM168.343 32.2267C170.598 24.9464 173.044 17.7487 175.45 10.6796C175.844 11.4086 176.195 12.1739 176.505 12.9705C173.903 19.4706 171.287 26.073 168.83 32.7561C168.674 32.5747 168.511 32.3982 168.344 32.2283L168.343 32.2267ZM169.302 33.34C171.712 26.7706 174.277 20.2788 176.834 13.8842C177.097 14.6627 177.321 15.4693 177.507 16.3038C174.861 22.0947 172.219 27.9648 169.694 33.9041C169.569 33.7128 169.438 33.5247 169.302 33.3416V33.34ZM170.107 34.5869C172.563 28.7861 175.137 23.048 177.722 17.3842C177.861 18.1759 177.966 18.989 178.037 19.8219C175.451 24.8706 172.88 29.9786 170.395 35.1378C170.304 34.9514 170.208 34.7683 170.107 34.5869ZM170.914 36.4441C170.857 36.2693 170.796 36.0977 170.731 35.9262C173.13 30.9303 175.614 25.9789 178.117 21.0853C178.117 21.1002 178.117 21.115 178.119 21.1298L178.123 21.2783V23.4356C175.689 27.7322 173.273 32.07 170.914 36.4441ZM178.123 24.7452V26.5348C175.811 30.2607 173.516 34.0129 171.259 37.7933C171.231 37.6415 171.198 37.4914 171.164 37.343C173.437 33.1091 175.77 28.9082 178.123 24.7452ZM171.22 41.9711C173.501 38.7697 175.807 35.5798 178.125 32.4065V33.1751C175.809 36.1126 173.5 39.06 171.208 42.0172C171.211 42.0007 171.215 41.9859 171.218 41.9711H171.22ZM178.127 34.2208V34.7815C176.096 37.1797 174.07 39.5828 172.051 41.9909C174.067 39.3915 176.093 36.8036 178.127 34.2208ZM173.199 41.6296C173.199 41.6296 173.213 41.6132 173.219 41.6049C174.851 39.662 176.488 37.7207 178.127 35.7827V36.1719C176.49 37.9813 174.853 39.7923 173.221 41.6049C173.214 41.6132 173.206 41.6197 173.199 41.628V41.6296ZM178.127 37.1401V37.3875C176.929 38.6311 175.732 39.8731 174.533 41.1167C175.729 39.7906 176.928 38.4662 178.127 37.1418V37.1401Z" fill="#451212"/>
</g>
<defs>
<clipPath id="clip0_41_126">
<rect width="180" height="77" fill="white"/>
</clipPath>
</defs>
</svg>
