<svg width="19" height="16" viewBox="0 0 19 16" fill="none" xmlns="http://www.w3.org/2000/svg">
<path d="M0 5.26217C0 4.97051 0 4.67886 0 4.38766C0.0129883 4.31098 0.0301514 4.2343 0.0380371 4.15716C0.123389 3.35522 0.345117 2.59801 0.812695 1.9257C1.48948 0.95351 2.43948 0.388455 3.60007 0.150201C4.46797 -0.0278053 5.33726 -0.0752735 6.20515 0.162068C7.17463 0.427251 7.97388 0.984547 8.74575 1.58657C9.00598 1.78923 9.24766 2.01516 9.50788 2.23926C9.5668 2.18495 9.62478 2.132 9.68184 2.07814C10.2612 1.535 10.9018 1.0699 11.5879 0.667331C12.6348 0.0529821 13.7676 -0.110418 14.963 0.0680441C15.6852 0.175761 16.3717 0.380696 16.9882 0.77596C18.0096 1.43139 18.6159 2.3625 18.8562 3.52912C18.9146 3.81302 18.9522 4.10148 18.9995 4.38766V5.26217C18.9879 5.30781 18.9768 5.35391 18.9643 5.39955C18.8437 5.8432 18.7639 6.30236 18.5946 6.72729C18.1428 7.86242 17.3714 8.78897 16.4923 9.62697C14.3581 11.6608 12.2108 13.6814 10.0682 15.707C9.65539 16.0973 9.34228 16.0973 8.9313 15.7079C6.82209 13.7101 4.71057 11.7137 2.60647 9.71095C2.25671 9.37776 1.92227 9.02631 1.60776 8.66117C0.864184 7.79579 0.327954 6.82177 0.0881348 5.70353C0.0565918 5.55702 0.0292236 5.40914 0 5.26217Z" fill="#B90707"/>
</svg>
