<svg width="26" height="21" viewBox="0 0 26 21" fill="none" xmlns="http://www.w3.org/2000/svg">
<path d="M13.935 16.3543C13.1866 17.0642 12.456 17.7576 11.7254 18.451C11.3733 18.7854 11.022 19.1204 10.6715 19.4563C10.5133 19.6077 10.3326 19.6744 10.1185 19.5845C9.90212 19.4938 9.83775 19.3183 9.85326 19.1025C9.9789 17.3858 10.0991 15.6691 10.2372 13.954C10.2472 13.8288 10.3682 13.6901 10.4737 13.5964C13.0889 11.2613 15.7095 8.93145 18.3285 6.60009C19.1467 5.87145 19.9649 5.14281 20.7839 4.41417C20.8405 4.36319 20.9189 4.32196 20.9483 4.25899C20.9902 4.17054 20.9956 4.06559 21.0166 3.96738C20.9134 3.96064 20.7847 3.91191 20.7102 3.95314C20.1999 4.23725 19.6997 4.54085 19.1971 4.83771C15.0665 7.28076 10.9359 9.72306 6.80844 12.1721C6.62308 12.2823 6.4703 12.289 6.27098 12.2231C4.41741 11.6069 2.56151 10.9989 0.70561 10.3887C0.241829 10.2366 0.0145918 9.98468 0.000631796 9.60162C-0.0133282 9.20731 0.203827 8.9352 0.674587 8.76053C7.62665 6.1863 14.5795 3.61281 21.5315 1.03932C22.3342 0.742469 23.1408 0.45461 23.9381 0.145012C24.5066 -0.0761294 25.0363 -0.0663842 25.5132 0.328672C25.991 0.723728 26.0763 1.23048 25.9437 1.80695C25.058 5.6638 24.1793 9.52216 23.299 13.3805C22.7934 15.5972 22.2916 17.8138 21.782 20.0297C21.5618 20.9885 20.68 21.2899 19.8649 20.6932C17.9997 19.3273 16.1337 17.9608 14.2677 16.5949C14.1677 16.5215 14.0661 16.4503 13.9334 16.3551L13.935 16.3543Z" fill="#760000"/>
</svg>
