<svg width="23" height="24" viewBox="0 0 23 24" fill="none" xmlns="http://www.w3.org/2000/svg">
<path d="M12.5896 0.180664C12.7226 0.180664 12.8563 0.187499 12.9887 0.201168C13.3688 0.239691 13.7489 0.276349 14.1278 0.321085C15.5589 0.49071 16.9539 0.797648 18.297 1.32827C20.0804 2.03286 21.2397 3.301 21.8973 5.04943C22.3775 6.32565 22.6031 7.65034 22.6905 8.99987C22.8121 10.8701 22.7133 12.7341 22.4111 14.5832C22.1583 16.1272 21.5736 17.5314 20.4415 18.6753C19.4918 19.6346 18.3058 20.1553 17.0116 20.5014C14.7062 21.1184 12.3615 21.2575 9.9902 21.1016C9.80901 21.0898 9.70512 21.1469 9.59298 21.2774C8.99747 21.9708 8.39625 22.6593 7.78553 23.339C7.61955 23.5235 7.42696 23.6919 7.22233 23.8336C6.74402 24.1641 6.16561 23.9858 5.97492 23.444C5.90143 23.2365 5.87102 23.0054 5.86722 22.7848C5.85455 22.0721 5.86406 21.3588 5.86469 20.6462V20.6437C5.86469 20.5287 5.79753 20.4231 5.6911 20.3746C5.11016 20.1099 4.54315 19.8856 4.0243 19.5806C2.45125 18.6566 1.54975 17.2313 1.03469 15.5444C0.62987 14.2197 0.503798 12.8571 0.489226 11.4815C0.472121 9.85296 0.498731 8.22756 0.838933 6.62327C1.00175 5.8553 1.24756 5.11592 1.58206 4.40138C2.30111 2.86607 3.51621 1.87069 5.08925 1.25309C6.48554 0.70507 7.93885 0.405587 9.43143 0.267651C9.61516 0.250875 9.79888 0.230992 9.9826 0.211109C10.179 0.191227 10.3767 0.180664 10.5737 0.180664H12.5896ZM6.52039 20.8984C6.51215 20.8984 6.50391 20.8984 6.49631 20.8984C6.49631 21.4794 6.49631 22.0609 6.49631 22.6419C6.49631 22.7345 6.48427 22.8332 6.51152 22.919C6.54446 23.0215 6.59451 23.1675 6.6718 23.1936C6.75416 23.221 6.90113 23.1545 6.97842 23.0849C7.15771 22.9227 7.31863 22.7394 7.47447 22.5543C8.31643 21.5583 9.15268 20.5579 9.9997 19.5657C10.0688 19.4849 10.2043 19.4072 10.3044 19.4128C12.0175 19.5035 13.7179 19.4029 15.3935 19.0468C16.1766 18.8803 16.9691 18.6865 17.7015 18.3777C19.3721 17.6731 20.2375 16.3061 20.6594 14.6304C20.9299 13.5555 20.9749 12.4545 21.018 11.356C21.0845 9.65414 20.9844 7.96722 20.5232 6.31198C20.0018 4.43928 18.8481 3.19289 16.9267 2.61753C15.002 2.04156 13.0387 1.81664 11.0368 1.85454C9.36935 1.88622 7.73168 2.0981 6.16308 2.68899C5.36864 2.98847 4.61791 3.36811 4.02873 3.9882C3.01319 5.05751 2.57859 6.37971 2.35622 7.78703C2.13386 9.19435 2.12499 10.6147 2.17884 12.0307C2.20925 12.8316 2.29541 13.6419 2.46646 14.4241C2.93653 16.5733 4.16621 18.1049 6.36834 18.7766C6.51278 18.8207 6.52102 18.8996 6.52039 19.0158C6.51722 19.6433 6.51912 20.2709 6.51912 20.899L6.52039 20.8984Z" fill="#760000"/>
<path d="M5.36548 7.29927C5.39525 6.85129 5.57454 6.46792 5.87673 6.16409C6.18843 5.85094 6.5318 5.55767 6.90114 5.31224C7.38326 4.99226 7.80898 5.08173 8.15362 5.54773C8.62496 6.18584 9.09314 6.8283 9.5252 7.4925C9.88758 8.04984 9.78622 8.53386 9.25279 8.93897C8.49446 9.51556 8.49763 9.74049 8.85303 10.537C9.52014 12.032 10.5433 13.1765 12.1569 13.7301C12.6954 13.9146 12.9196 13.8481 13.263 13.4132C13.3498 13.3032 13.4353 13.1914 13.5234 13.082C13.8256 12.7055 14.2741 12.5881 14.7055 12.8192C15.5336 13.2634 16.2906 13.8084 16.9622 14.4608C17.2111 14.7031 17.258 15.0162 17.1212 15.3225C16.8133 16.0128 16.3514 16.5832 15.6603 16.943C15.3334 17.1132 14.9881 17.1474 14.632 17.0107C10.7162 15.5083 7.74373 13.023 6.09973 9.14898C5.89954 8.67801 5.68414 8.21263 5.48648 7.74104C5.42756 7.60061 5.40539 7.4459 5.36611 7.2974L5.36548 7.29927Z" fill="#760000"/>
<path d="M11.7431 4.44986C14.4666 4.53561 16.6763 6.31262 17.3282 8.99057C17.474 9.58829 17.5063 10.214 17.5728 10.8285C17.6 11.0814 17.4942 11.2007 17.3029 11.2118C17.0995 11.223 16.9925 11.1124 16.9861 10.8428C16.9633 9.84863 16.7986 8.88308 16.345 7.98587C15.4258 6.16599 13.8958 5.23523 11.8571 5.06312C11.7235 5.05194 11.5885 5.05504 11.4548 5.04324C11.2559 5.02584 11.1539 4.91462 11.1666 4.71828C11.1786 4.52877 11.2946 4.44614 11.4827 4.44924C11.5695 4.45048 11.6563 4.44924 11.7431 4.44924V4.44986Z" fill="#760000"/>
<path d="M16.0151 10.0692C16.0151 10.1077 16.0151 10.1469 16.0151 10.1854C16.0144 10.4687 15.92 10.5998 15.7186 10.5967C15.5228 10.5936 15.4392 10.4724 15.4253 10.2015C15.4126 9.96232 15.4037 9.72062 15.3619 9.48576C15.0794 7.89763 13.9314 6.83701 12.3001 6.64502C12.1822 6.63135 12.065 6.61706 11.9478 6.60215C11.7552 6.57729 11.6742 6.45986 11.6868 6.2803C11.7001 6.09328 11.8161 5.99386 12.0011 6.00753C14.1842 6.16597 15.6818 7.49252 15.9676 9.51434C15.9935 9.69825 16.0056 9.88341 16.0246 10.0679C16.0214 10.0679 16.0182 10.0686 16.0157 10.0692H16.0151Z" fill="#760000"/>
<path d="M14.4908 9.68393C14.4978 9.93867 14.3983 10.076 14.2165 10.081C14.0106 10.0866 13.9219 9.96291 13.8991 9.77837C13.8826 9.64789 13.875 9.51554 13.8484 9.38755C13.6982 8.67799 13.2934 8.31637 12.5611 8.23249C12.5376 8.23001 12.5136 8.23001 12.4901 8.22752C12.2367 8.20391 12.1113 8.0871 12.1309 7.892C12.1505 7.70063 12.2817 7.6124 12.5256 7.62607C13.5696 7.68572 14.2938 8.33439 14.4471 9.34903C14.4654 9.47143 14.4794 9.59445 14.4908 9.68331V9.68393Z" fill="#760000"/>
</svg>
